<svg width="24" height="24" viewBox="0 0 24 24" fill="none" xmlns="http://www.w3.org/2000/svg">
<g clip-path="url(#clip0)">
<path d="M19.0863 9.46568H19.0526C18.5923 9.46311 18.1476 9.63225 17.8051 9.93998C17.528 9.17294 16.8236 8.62156 15.9986 8.62156C15.493 8.62511 15.01 8.83269 14.6597 9.19758C14.3376 8.54546 13.6914 8.1031 12.9484 8.1031H12.9125C12.5143 8.09699 12.1258 8.22651 11.8107 8.47016V3.8212C11.8107 2.69775 10.9361 1.78384 9.87215 1.78384C8.80941 1.78384 7.93927 2.69716 7.93868 3.81982L7.92981 13.0436L7.40781 12.4096C6.95007 11.8397 6.27627 11.4859 5.54728 11.4325C4.83326 11.3836 4.13088 11.632 3.60651 12.1193L3.15232 12.4956C3.00585 12.617 2.96406 12.824 3.05178 12.9928L7.46773 21.4811C8.27519 23.0323 9.81143 24 11.477 24H16.4536V23.9957C18.9769 23.9957 21.0227 21.8061 21.0253 19.1176C21.0263 17.9147 21.0217 17.0182 21.0225 16.2916C21.0251 14.3474 21.0231 13.6301 21.0182 11.4882C21.0156 10.3674 20.1473 9.46568 19.0863 9.46568ZM20.2092 16.2888C20.2084 17.0156 20.2072 17.9157 20.206 19.1186C20.2038 21.3626 18.5099 23.1924 16.4299 23.1924H11.4772C10.1138 23.1924 8.85199 22.391 8.18431 21.1081L3.91857 12.9111L4.12911 12.7355C4.13443 12.7312 4.13956 12.726 4.14468 12.7215C4.50681 12.3807 4.99412 12.2056 5.4903 12.2381C5.99752 12.277 6.46552 12.525 6.7827 12.9226L8.01852 14.4263C8.12655 14.5582 8.30594 14.6077 8.4664 14.5503C8.62687 14.4929 8.73411 14.3407 8.73411 14.1704L8.7414 3.82022C8.7418 3.14248 9.25434 2.5911 9.87255 2.5911C10.4908 2.5911 11.0033 3.14307 11.0033 3.8212V10.0618C11.0033 10.0835 11.0023 10.1054 11.0023 10.1274C11.0023 10.1369 11.0033 10.1466 11.0033 10.1558V12.824C11.0033 13.047 11.1841 13.2277 11.407 13.2277C11.63 13.2277 11.8107 13.047 11.8107 12.824V10.0754C11.8107 9.42152 12.3103 8.91055 12.9125 8.91055H12.9484C13.567 8.91055 14.0817 9.44971 14.0817 10.1278V12.5693C14.0817 12.7923 14.2625 12.973 14.4854 12.973C14.7084 12.973 14.8892 12.7923 14.8892 12.5693V10.6538C14.8892 9.97546 15.3792 9.42369 16.0012 9.42369C16.6196 9.42369 17.1097 9.97526 17.1097 10.6538V12.4609C17.1097 12.6839 17.2904 12.8646 17.5134 12.8646C17.7363 12.8646 17.9171 12.6839 17.9171 12.4609V11.4823C17.9171 10.804 18.434 10.2731 19.0526 10.2731H19.0863C19.7033 10.2731 20.2062 10.8131 20.2078 11.4892C20.2127 13.6295 20.2117 14.3461 20.2092 16.2888Z" fill="black"/>
<path d="M6.65615 3.99548C6.87911 3.99548 7.05988 3.81471 7.05988 3.59175C7.06638 2.05117 8.31718 0.805883 9.85757 0.805883C11.3982 0.805883 12.6488 2.05117 12.6553 3.59175C12.6553 3.81471 12.836 3.99548 13.059 3.99548C13.282 3.99548 13.4627 3.81471 13.4627 3.59175C13.4552 1.60584 11.8435 7.62939e-06 9.85757 7.62939e-06C7.87186 7.62939e-06 6.25992 1.60584 6.25242 3.59175C6.25242 3.81471 6.43319 3.99548 6.65615 3.99548Z" fill="black"/>
</g>
<defs>
<clipPath id="clip0">
<rect width="24" height="24" fill="white"/>
</clipPath>
</defs>
</svg>
